<svg width="14" height="14" fill="none" xmlns="http://www.w3.org/2000/svg"><path d="M10.204 3.23a3.449 3.449 0 00-2.45.518 3.66 3.66 0 011.017-1.29 4.446 4.446 0 011.072-.66.417.417 0 10-.301-.78c-.066.026-1.1.437-1.917 1.397a2.839 2.839 0 00-.131-.454C7.008.695 5.673.065 5.616.04a.418.418 0 00-.559.214c-.025.058-.595 1.42-.109 2.685a2.8 2.8 0 00.15.327 3.464 3.464 0 00-1.302-.036C1.865 3.541.54 5.405.842 7.385c.215 1.409.53 2.62.934 3.597.46 1.11 1.04 1.925 1.725 2.424A2.998 2.998 0 005.303 14c.182 0 .367-.015.556-.046.436-.07.819-.23 1.141-.476.322.246.705.406 1.14.476.873.141 1.666-.043 2.359-.548.685-.5 1.265-1.315 1.725-2.424.405-.978.72-2.188.934-3.597.303-1.98-1.023-3.844-2.954-4.156zM5.683 1.044c.345.239.814.648 1.031 1.215.217.565.142 1.185.045 1.595-.345-.239-.813-.648-1.031-1.216-.217-.564-.142-1.184-.045-1.594zm6.65 6.214c-.424 2.78-1.228 4.673-2.326 5.472-.513.374-1.08.505-1.733.4-.4-.066-.717-.229-.967-.5a.417.417 0 00-.614 0c-.25.271-.566.434-.967.5-.653.104-1.22-.026-1.733-.4-1.098-.8-1.902-2.692-2.326-5.472-.233-1.529.781-2.967 2.262-3.206a2.636 2.636 0 012.033.516 1.712 1.712 0 002.075 0 2.63 2.63 0 012.034-.516c1.48.24 2.495 1.677 2.262 3.206z" fill="#F4A17B"/></svg>