<svg width="19" height="19" fill="none" xmlns="http://www.w3.org/2000/svg"><path d="M13.48 0H5.52A5.525 5.525 0 000 5.52v7.96A5.525 5.525 0 005.52 19h7.96A5.525 5.525 0 0019 13.48V5.52A5.525 5.525 0 0013.48 0zm4.036 13.48a4.04 4.04 0 01-4.035 4.036H5.519a4.04 4.04 0 01-4.035-4.035V5.519A4.04 4.04 0 015.52 1.484h7.962a4.04 4.04 0 014.035 4.035v7.962z" fill="#fff"/><path d="M9.5 4.379A5.127 5.127 0 004.379 9.5 5.127 5.127 0 009.5 14.621 5.127 5.127 0 0014.621 9.5 5.127 5.127 0 009.5 4.379zm0 8.758A3.64 3.64 0 015.863 9.5 3.64 3.64 0 019.5 5.863 3.64 3.64 0 0113.137 9.5 3.64 3.64 0 019.5 13.137zm5.195-8.09a.742.742 0 100-1.485.742.742 0 000 1.485z" fill="#fff"/></svg>