<svg width="19" height="19" fill="none" xmlns="http://www.w3.org/2000/svg"><g clip-path="url(#clip0)" fill="#fff"><path d="M9.5 10.702c-5.709 0-8.853 2.7-8.853 7.604 0 .383.31.694.694.694h16.318c.383 0 .694-.31.694-.694 0-4.903-3.144-7.604-8.853-7.604zm-7.44 6.911c.272-3.666 2.772-5.524 7.44-5.524 4.668 0 7.168 1.857 7.441 5.524H2.059zM9.5 0C6.878 0 4.9 2.017 4.9 4.692c0 2.753 2.064 4.993 4.6 4.993 2.536 0 4.6-2.24 4.6-4.993C14.1 2.017 12.122 0 9.5 0zm0 8.298c-1.772 0-3.213-1.617-3.213-3.606 0-1.915 1.351-3.305 3.213-3.305 1.832 0 3.213 1.42 3.213 3.305 0 1.989-1.441 3.606-3.213 3.606z"/></g><defs><clipPath id="clip0"><path fill="#fff" d="M0 0h19v19H0z"/></clipPath></defs></svg>