<svg width="23" height="23" fill="none" xmlns="http://www.w3.org/2000/svg"><g clip-path="url(#clip0)"><path d="M22.64 4.734a1.61 1.61 0 00-1.258-.601H3.852l-.157-1.122a1.624 1.624 0 00-1.602-1.394H.72a.719.719 0 000 1.438h1.374a.18.18 0 01.178.155l1.94 13.904c.111.795.8 1.394 1.602 1.394h.78a2.159 2.159 0 002.033 2.875 2.159 2.159 0 002.031-2.875h3.841a2.159 2.159 0 002.033 2.875 2.159 2.159 0 002.033-2.875h1.56a.719.719 0 000-1.438H5.814a.18.18 0 01-.178-.154l-.179-1.283h14.155c.757 0 1.422-.537 1.581-1.278l1.772-8.266a1.61 1.61 0 00-.324-1.355zM9.344 19.227a.72.72 0 11-1.44-.002.72.72 0 011.44.002zm7.906 0a.72.72 0 11-1.44-.002.72.72 0 011.44.002zm4.308-13.44l-1.771 8.266a.18.18 0 01-.176.142H5.255L4.052 5.57h17.33c.071 0 .116.037.14.067.025.03.051.081.036.15z" fill="#fff"/></g><defs><clipPath id="clip0"><path fill="#fff" d="M0 0h23v23H0z"/></clipPath></defs></svg>