<svg width="30" height="43" fill="none" xmlns="http://www.w3.org/2000/svg"><path d="M28.154 20.856c0 .266-.037.529-.077.792a7.294 7.294 0 01-.626 2.01 8.008 8.008 0 01-3.104 3.423c-.85.52-1.78.877-2.788 1.058-.53.096-1.067.152-1.607.19-.441.03-.885.045-1.33.053-.694.011-1.39.008-2.085.011-.059 0-.114-.005-.17-.008-.083-.11-.11-.232-.148-.35a.98.98 0 01-.046-.315c.012-.574.016-1.15.028-1.725a6.713 6.713 0 01.244-1.6c.478-1.749 1.474-3.203 3.004-4.337 1.505-1.114 3.236-1.69 5.17-1.759 1.12-.04 2.24.006 3.36.02.036 0 .076.003.114.014.021.009.049.034.055.054a.474.474 0 01.015.133l-.009 2.336zm-14.896 7.178c-.037.119-.065.24-.148.35-.056.004-.111.01-.17.01-.694-.003-1.39 0-2.085-.012a26.111 26.111 0 01-1.33-.054 14.591 14.591 0 01-1.607-.19 8.013 8.013 0 01-2.788-1.057 8.008 8.008 0 01-3.103-3.422 7.295 7.295 0 01-.626-2.011 5.25 5.25 0 01-.078-.792l-.009-2.336c0-.046.003-.09.016-.133a.104.104 0 01.055-.054.392.392 0 01.114-.014c1.12-.014 2.24-.06 3.36-.02 1.934.068 3.664.645 5.17 1.76 1.53 1.133 2.526 2.587 3.004 4.335.142.526.231 1.058.244 1.6.012.575.015 1.152.027 1.726a.983.983 0 01-.046.314zm16.118-10.128c-.189-.506-.67-.775-1.16-.778-.028 0-.059 0-.087-.003-.453-.008-.907-.02-1.36-.028a502.06 502.06 0 01-.632-.017c-.324 0-.642.003-.963 0-.413-.003-.83.028-1.243.062-3.38.289-6.243 2.136-7.773 4.67l-.14.232c-.02.03-.058.048-.067.03-.01-.013-.025-.027-.025-.042-.021-.387-.04-.777-.058-1.168-.028-.59-.053-1.182-.099-1.776-.015-.2-.018-.404-.022-.608a1.16 1.16 0 01.059-.368c.068-.22.2-.398.398-.54a1.77 1.77 0 01.429-.22c.114-.043.234-.08.351-.116a9.132 9.132 0 001.53-.628c1.447-.767 2.413-1.884 2.912-3.34A7.2 7.2 0 0021.729 12c.11-.758.126-1.515.07-2.28-.027-.336-.052-.67-.092-1.003-.056-.441-.13-.877-.228-1.312a12.024 12.024 0 00-.858-2.53 11.072 11.072 0 00-2.329-3.24 7.035 7.035 0 00-1.046-.837 5.08 5.08 0 00-1.616-.69A4.125 4.125 0 0014.74 0c-.3.003-.599.04-.892.107a5.083 5.083 0 00-1.616.69c-.38.247-.725.53-1.046.838a11.072 11.072 0 00-2.329 3.24A12.055 12.055 0 008 7.405c-.099.435-.173.87-.229 1.312-.04.334-.064.667-.092 1.004-.056.764-.04 1.521.07 2.28.066.43.161.854.303 1.267.5 1.456 1.465 2.573 2.912 3.34.488.257 1 .46 1.53.628.117.036.237.073.352.116.154.056.299.127.428.22.198.142.33.32.398.54.037.122.062.244.059.368a9.804 9.804 0 01-.022.608c-.046.594-.07 1.185-.098 1.776-.019.39-.037.78-.059 1.168 0 .015-.015.029-.025.043-.009.017-.046 0-.067-.031l-.14-.232c-1.53-2.534-4.392-4.381-7.773-4.67a14.06 14.06 0 00-1.243-.062c-.32.003-.638 0-.962 0l-.633.017c-.453.009-.906.02-1.36.028-.028.003-.059.003-.086.003-.49.003-.972.272-1.16.778a1.51 1.51 0 00-.102.546c.003.744-.003 1.488.006 2.231.013.648.099 1.287.269 1.918.527 1.983 1.631 3.637 3.343 4.941a9.308 9.308 0 003.523 1.663c.657.159 1.323.238 1.996.297.558.045 1.12.068 1.678.07.29.004.58.01.87.018.046 0 .092.011.139.02.006.002.015.01.015.016.003.009 0 .023-.006.026a.503.503 0 01-.093.062c-.138.06-.277.119-.42.178a4.87 4.87 0 00-1.218.707c-.493.41-.826.908-.99 1.5a3.361 3.361 0 00-.114 1.08c.016.22.034.441.074.659.053.288.09.577.133.868a813.762 813.762 0 01.293 2.079l.135.973.149 1.001c.064.455.13.91.194 1.369l.222 1.499c.034.218.068.435.105.656a.934.934 0 00.151.37c.099.148.24.25.423.303.231.065.46.054.684-.008.293-.085.472-.266.543-.538.038-.138.047-.28.038-.421l-.09-1.431c-.025-.424-.053-.849-.08-1.273l-.111-1.643c-.003-.045-.01-.088-.013-.133l-.09-1.324a19.33 19.33 0 01-.04-.582c-.008-.224-.02-.444-.02-.665 0-.206.064-.402.181-.58.225-.342.651-.444 1.006-.365a.754.754 0 01.509.365c.092.156.148.326.16.504.019.203.034.407.04.61.022.611.043 1.22.062 1.83.018.532.037 1.064.052 1.593.028.823.053 1.646.084 2.469.009.274.024.549.037.823a.97.97 0 00.07.337.751.751 0 00.516.432c.108.029.216.043.324.04.108.003.215-.011.324-.04a.751.751 0 00.515-.433.972.972 0 00.07-.336c.013-.274.029-.549.038-.823.03-.823.055-1.646.083-2.47.015-.528.034-1.06.053-1.591.018-.611.04-1.22.061-1.83.006-.204.022-.408.04-.611a1.14 1.14 0 01.16-.504.754.754 0 01.51-.365c.354-.079.78.023 1.005.365.117.178.182.374.182.58 0 .22-.012.441-.021.665-.01.192-.025.387-.04.582a183 183 0 01-.09 1.324c-.003.045-.01.088-.012.133l-.111 1.643c-.028.424-.056.849-.08 1.273-.031.475-.06.953-.09 1.43-.01.142 0 .284.037.422.071.272.25.453.543.538.225.062.453.073.685.008a.748.748 0 00.422-.302.934.934 0 00.151-.37c.038-.221.072-.44.105-.657l.223-1.5.194-1.368.148-1.001.136-.973c.049-.368.101-.738.154-1.106l.139-.973c.043-.291.08-.58.132-.868.04-.218.059-.439.074-.66a3.364 3.364 0 00-.114-1.08 2.937 2.937 0 00-.99-1.499 4.869 4.869 0 00-1.219-.707l-.419-.178a.498.498 0 01-.092-.062c-.007-.003-.01-.017-.007-.026 0-.005.01-.014.016-.017.046-.008.092-.02.139-.02.29-.008.58-.013.87-.016.558-.003 1.12-.026 1.677-.071.673-.06 1.34-.139 1.996-.297a9.309 9.309 0 003.523-1.663c1.712-1.304 2.816-2.959 3.344-4.941.17-.63.256-1.27.268-1.918.01-.743.003-1.487.006-2.231 0-.187-.034-.37-.101-.546z" fill="#000"/></svg>