<svg width="95" height="150" fill="none" xmlns="http://www.w3.org/2000/svg"><path d="M94.323 62.455c-.617-1.76-2.14-2.701-3.745-2.701h-.288c-1.44-.041-2.922-.082-4.362-.082-.7 0-1.358-.04-2.016-.04h-3.087a43.38 43.38 0 00-3.992.204c-10.864 1.023-20.083 7.449-25.021 16.289-.165.286-.288.532-.453.818-.082.123-.206.164-.206.123-.04-.04-.082-.082-.082-.163-.082-1.351-.123-2.702-.206-4.093-.082-2.047-.164-4.134-.329-6.18-.041-.696-.041-1.392-.082-2.129 0-.45.082-.859.206-1.268.205-.778.658-1.392 1.275-1.883a5.133 5.133 0 011.4-.778c.37-.163.74-.286 1.152-.409a28 28 0 004.938-2.21c4.65-2.66 7.778-6.59 9.383-11.664.453-1.433.782-2.906.988-4.42.37-2.66.411-5.28.247-7.94a101.497 101.497 0 00-.288-3.52 42.552 42.552 0 00-.741-4.584 44.92 44.92 0 00-2.757-8.84 37.884 37.884 0 00-7.49-11.296 22.899 22.899 0 00-3.375-2.906C53.787 1.678 52.06.82 50.207.368A11.347 11.347 0 0047.327 0c-.947 0-1.935.123-2.881.368-1.893.45-3.622 1.31-5.186 2.415a22.905 22.905 0 00-3.374 2.906c-3.17 3.356-5.68 7.121-7.49 11.296-1.235 2.824-2.14 5.812-2.758 8.84a42.552 42.552 0 00-.74 4.584c-.124 1.146-.206 2.333-.288 3.52-.165 2.66-.124 5.32.247 7.94.205 1.514.535 2.987.987 4.42 1.605 5.075 4.733 9.004 9.383 11.664 1.564.9 3.21 1.596 4.939 2.21.37.123.782.246 1.152.41.494.204.946.45 1.4.777.616.491 1.07 1.105 1.275 1.883.123.409.206.86.206 1.268 0 .696 0 1.433-.083 2.129-.164 2.087-.247 4.133-.329 6.18-.041 1.35-.123 2.742-.206 4.093 0 .04-.04.081-.082.163-.041.041-.165 0-.206-.123-.164-.286-.288-.532-.453-.818-4.938-8.84-14.156-15.307-25.02-16.29-1.317-.122-2.676-.245-3.992-.204H10.74c-.659 0-1.358.041-2.017.041-1.44.041-2.921.082-4.362.082h-.288c-1.564 0-3.127.941-3.745 2.701A6.093 6.093 0 000 64.38v7.776c.041 2.25.33 4.502.864 6.712 1.687 6.917 5.268 12.688 10.782 17.23 3.334 2.784 7.12 4.707 11.317 5.812 2.1.573 4.24.819 6.42 1.023 1.811.164 3.622.246 5.392.246.946 0 1.851.041 2.798.041.164 0 .288.041.453.082l.04.041v.081a1.25 1.25 0 01-.287.205l-1.358.614c-1.4.655-2.758 1.432-3.91 2.456-1.605 1.432-2.675 3.151-3.169 5.238-.288 1.228-.452 2.497-.37 3.766.041.777.123 1.555.247 2.292a76.62 76.62 0 01.411 3.028c.165 1.146.288 2.251.453 3.397.165 1.269.33 2.579.494 3.847.164 1.146.288 2.251.453 3.397.164 1.146.329 2.333.493 3.479l.618 4.789c.247 1.719.494 3.478.7 5.238.123.778.205 1.515.328 2.292.083.45.247.901.494 1.31.33.532.782.859 1.358 1.064.741.246 1.482.205 2.223-.041.946-.286 1.522-.941 1.728-1.883a4.46 4.46 0 00.124-1.473c-.083-1.678-.206-3.356-.288-4.993-.083-1.473-.165-2.947-.247-4.461-.124-1.924-.247-3.806-.37-5.73 0-.164-.042-.287-.042-.45-.082-1.555-.206-3.07-.288-4.625l-.123-2.046a43.324 43.324 0 01-.083-2.333 3.8 3.8 0 01.576-2.006c.741-1.187 2.1-1.555 3.252-1.268.74.163 1.275.614 1.646 1.268.288.532.494 1.146.535 1.76.04.696.123 1.433.123 2.128.082 2.129.123 4.257.206 6.385.041 1.842.123 3.725.164 5.566.083 2.865.165 5.73.289 8.636l.123 2.865c0 .409.082.818.247 1.187.33.777.864 1.268 1.646 1.514.33.082.7.164 1.029.123.33 0 .7-.041 1.029-.123.823-.246 1.358-.737 1.646-1.514.164-.369.206-.778.247-1.187l.123-2.865c.082-2.865.165-5.73.288-8.636.041-1.841.124-3.683.165-5.566.041-2.128.123-4.256.206-6.385 0-.695.082-1.432.123-2.128.041-.614.206-1.228.535-1.76.37-.654.905-1.105 1.646-1.268 1.152-.287 2.51.081 3.251 1.268.37.614.577 1.31.577 2.006 0 .777-.042 1.555-.083 2.333-.041.654-.082 1.35-.123 2.046-.083 1.555-.206 3.07-.288 4.625 0 .163-.041.286-.041.45-.124 1.924-.247 3.806-.37 5.73-.083 1.473-.165 2.947-.248 4.461-.082 1.678-.206 3.315-.288 4.993-.041.491 0 .982.124 1.473.247.942.823 1.597 1.728 1.883.74.205 1.44.246 2.222.041.576-.205 1.03-.532 1.358-1.064.247-.409.412-.819.494-1.31.124-.777.247-1.514.33-2.292.246-1.76.493-3.479.699-5.238l.617-4.789c.165-1.146.33-2.333.494-3.479.165-1.146.288-2.251.453-3.397.165-1.268.33-2.578.494-3.847.164-1.146.288-2.251.452-3.397a76.63 76.63 0 01.412-3.028c.123-.778.206-1.515.247-2.292a11.617 11.617 0 00-.37-3.766 10.651 10.651 0 00-3.17-5.238c-1.152-1.024-2.51-1.842-3.909-2.456l-1.358-.614a.739.739 0 01-.288-.205s-.041-.041 0-.081l.041-.041c.165-.041.288-.082.453-.082.946-.041 1.852-.041 2.798-.041a58.6 58.6 0 005.391-.246c2.181-.204 4.321-.491 6.42-1.023 4.239-1.105 7.984-3.029 11.317-5.812 5.515-4.542 9.054-10.313 10.783-17.23a30.6 30.6 0 00.864-6.712c.04-2.579 0-5.198 0-7.776-.33-.696-.412-1.31-.659-1.924zM42.47 97.775c-.123.41-.206.86-.494 1.228-.164 0-.37.041-.535.041-2.222 0-4.485 0-6.708-.04-1.44-.042-2.84-.083-4.28-.205a44.894 44.894 0 01-5.185-.655c-3.251-.614-6.255-1.883-8.971-3.684-4.527-2.987-7.82-7.04-10-11.95a27.628 27.628 0 01-2.017-7.04c-.124-.9-.247-1.842-.247-2.783 0-2.742 0-5.443-.041-8.145 0-.163 0-.327.041-.45 0-.082.123-.163.165-.204.123-.041.247-.041.37-.041 3.622-.041 7.202-.205 10.823-.082 6.214.245 11.811 2.25 16.626 6.139 4.939 3.97 8.149 9.045 9.671 15.143.453 1.842.741 3.684.782 5.607.041 2.005.041 4.011.083 6.016.082.41 0 .778-.083 1.105zm47.944-25.047c0 .941-.124 1.842-.247 2.783-.37 2.415-1.029 4.788-2.017 7.04-2.18 4.91-5.473 8.962-10 11.95-2.757 1.801-5.72 3.07-8.971 3.684a42.706 42.706 0 01-5.186.654c-1.399.123-2.84.164-4.28.205-2.222.041-4.485.041-6.708.041-.205 0-.37 0-.535-.04-.288-.37-.37-.82-.493-1.229-.083-.368-.165-.736-.165-1.105.041-2.005.041-4.01.082-6.016.041-1.883.33-3.765.782-5.607 1.523-6.098 4.733-11.173 9.671-15.143 4.856-3.888 10.412-5.894 16.626-6.14 3.622-.122 7.202 0 10.823.083.124 0 .247 0 .37.04.083.041.165.123.165.205.042.164.042.287.042.45.04 2.702.04 5.444.04 8.145z" fill="#fff"/></svg>